# xmcd
#
# Track frame offsets: 
#        150
#        21120
#        43417
#        65259
#        89689
#        106799
#        125716
#        145629
#        162849
#        180868
#        202437
#        221601
#        267309
#
# Disc length: 3786 seconds
#
# Revision: 0
# Processed by: cddbd v1.5.2PL0 Copyright (c) Steve Scherf et al.
# Submitted via: ExactAudioCopy v0.99pb3
#
DISCID=c00ec80d
DTITLE=2000 Lbla Of Blues - Soul Of A Sinner
DYEAR=2009
DGENRE=Blues
TTITLE0=Who's Jivin' Who
TTITLE1=Don't Jump
TTITLE2=Big Empty House
TTITLE3=I Need Your Love So Bad
TTITLE4=Good Heart Black Soul
TTITLE5=Gravedigger
TTITLE6=Black Eyed Mary
TTITLE7=Love In The Dirt
TTITLE8=She's Right
TTITLE9=Real Bad Woman
TTITLE10=Bad Reputation
TTITLE11=Belly Of The Beast
TTITLE12=Soul Of A Sinner
EXTD=
EXTT0=
EXTT1=
EXTT2=
EXTT3=
EXTT4=
EXTT5=
EXTT6=
EXTT7=
EXTT8=
EXTT9=
EXTT10=
EXTT11=
EXTT12=
PLAYORDER=
